#!OML:ASF I:\Actors\actors\Patient Classification 1\Patient 1\Session 1\Subject1.ASF
:FULLY-SPECIFIED
:DEGREES
954
root 0.538764 17.5756 7.61118 14.7937 2.12304 -9.69997
lowerback 4.66059 0.965954 1.0558
upperback 0.987948 1.39379 2.99817
thorax -1.647 0.695861 2.4062
lowerneck -15.6772 -6.25571 -6.16841
upperneck 13.4851 -9.69007 14.5996
head 7.81578 -3.68175 4.70145
rclavicle 0 8.74653e-015
rhumerus 59.8379 33.2456 -33.4229
rradius 46.0585
rwrist 9.46665
rhand 9.61097 -70.8637
rfingers 7.12502
rthumb 34.7573 -622.524
lclavicle 0 8.74653e-015
lhumerus 59.9172 -33.9777 42.7082
lradius 33.1597
lwrist -8.09323
lhand -21.31 -15.1409
lfingers 7.12502
lthumb 5.07503 14.7784
rfemur -14.395 25.9864 17.1999
rtibia 3.4648
rfoot -13.6798 -30.1257
rtoes 4.69947
lfemur -9.64564 -56.6908 0.599552
ltibia -4.5126
lfoot -38.6312 62.2056
ltoes 26.3041
955
root 0.539307 17.5759 7.61299 14.8326 2.16996 -9.66372
lowerback 4.85161 0.938786 1.08515
upperback 0.878396 1.36855 3.01053
thorax -1.86525 0.683661 2.40019
lowerneck -15.8827 -6.3527 -6.36881
upperneck 13.8404 -9.82933 14.6483
head 7.99745 -3.73134 4.73375
rclavicle 7.45443e-015 1.27222e-014
rhumerus 60.1827 33.2949 -32.4056
rradius 46.0266
rwrist 10.402
rhand 7.89629 -70.5302
rfingers 7.12502
rthumb 33.1284 -622.497
lclavicle 7.45443e-015 1.27222e-014
lhumerus 60.0432 -34.1079 42.615
lradius 33.1958
lwrist -8.22979
lhand -20.4625 -14.2676
lfingers 7.12502
lthumb 5.8933 15.6305
rfemur -14.4409 26.0679 17.1313
rtibia 3.4867
rfoot -13.7995 -30.2427
rtoes 4.71913
lfemur -9.74778 -56.7479 0.65306
ltibia -4.51256
lfoot -38.7098 62.2197
ltoes 26.3797
956
root 0.540798 17.5757 7.61552 14.8671 2.23148 -9.6132
lowerback 4.87926 0.898923 1.13549
upperback 0.868998 1.31948 3.02563
thorax -1.88792 0.658926 2.3902
lowerneck -16.0746 -6.40775 -6.41115
upperneck 14.0249 -9.90926 14.6198
head 8.10209 -3.75839 4.7192
rclavicle -1.63003e-014 -1.43125e-014
rhumerus 60.4852 33.1722 -31.646
rradius 45.7957
rwrist 11.7702
rhand 6.57391 -69.6418
rfingers 7.12502
rthumb 31.87 -623.126
lclavicle -1.63003e-014 -1.43125e-014
lhumerus 60.2873 -34.1524 42.4797
lradius 33.2053
lwrist -8.05935
lhand -19.7981 -13.5574
lfingers 7.12502
lthumb 6.53472 16.3218
rfemur -14.4559 26.0836 17.0553
rtibia 3.46958
rfoot -13.8243 -30.3187
rtoes 4.72424
lfemur -9.84406 -56.9027 0.683484
ltibia -4.49406
lfoot -38.8401 62.2949
ltoes 26.4007
957
root 0.542049 17.5756 7.61802 14.8672 2.27916 -9.58723
lowerback 4.90343 0.873968 1.23066
upperback 0.897117 1.2908 3.02187
thorax -1.86935 0.643888 2.33454
lowerneck -16.1628 -6.41391 -6.34844
upperneck 14.021 -9.92002 14.5721
head 8.11183 -3.76054 4.68922
rclavicle 1.85864e-014 3.97569e-016
rhumerus 60.5025 32.926 -31.2802
rradius 45.4304
rwrist 13.5912
rhand 5.57609 -68.3257
rfingers 7.12502
rthumb 30.9193 -624.258
lclavicle 1.85864e-014 3.97569e-016
lhumerus 60.4478 -34.1841 42.5213
lradius 33.2656
lwrist -7.87076
lhand -19.718 -13.0091
lfingers 7.12502
lthumb 6.61203 16.8676
rfemur -14.4269 26.0577 17.0339
rtibia 3.45408
rfoot -13.8303 -30.3431
rtoes 4.7499
lfemur -9.85658 -56.9944 0.659884
ltibia -4.47696
lfoot -38.8304 62.3543
ltoes 26.3284
958
root 0.541832 17.576 7.61942 14.8638 2.31899 -9.53936
lowerback 4.95236 0.851368 1.26087
upperback 0.904587 1.2635 3.02128
thorax -1.88749 0.630038 2.31812
lowerneck -16.082 -6.40803 -6.3351
upperneck 13.8842 -9.90307 14.5926
head 8.05098 -3.75884 4.69588
rclavicle -1.2921e-015 7.95139e-015
rhumerus 60.2249 32.6584 -31.0911
rradius 45.1715
rwrist 15.4457
rhand 4.90315 -66.5548
rfingers 7.12502
rthumb 30.2776 -625.909
lclavicle -1.2921e-015 7.95139e-015
lhumerus 60.4801 -34.2695 42.6449
lradius 33.4134
lwrist -7.54898
lhand -19.9814 -12.4397
lfingers 7.12502
lthumb 6.35781 17.4449
rfemur -14.417 26.0497 16.9822
rtibia 3.46527
rfoot -13.8918 -30.3889
rtoes 4.78526
lfemur -9.88251 -56.9301 0.609464
ltibia -4.45899
lfoot -38.6108 62.2904
ltoes 26.2372
959
root 0.542187 17.5771 7.62056 14.8955 2.36409 -9.49292
lowerback 4.97503 0.818872 1.26511
upperback 0.888418 1.22247 3.05545
thorax -1.91618 0.609676 2.35335
lowerneck -15.9091 -6.40604 -6.44303
upperneck 13.6866 -9.86886 14.6711
head 7.96127 -3.75686 4.7458
rclavicle -5.76476e-015 3.37934e-014
rhumerus 60.0935 32.4122 -30.7131
rradius 44.8716
rwrist 16.7749
rhand 4.16282 -64.4341
rfingers 7.12502
rthumb 29.5711 -627.902
lclavicle -5.76476e-015 3.37934e-014
lhumerus 60.5177 -34.3626 42.7495
lradius 33.5737
lwrist -6.8875
lhand -20.1831 -11.8665
lfingers 7.12502
lthumb 6.16308 18.0239
rfemur -14.45 26.0174 16.9169
rtibia 3.47096
rfoot -13.9159 -30.4248
rtoes 4.74001
lfemur -9.98363 -56.9963 0.644511
ltibia -4.44507
lfoot -38.6146 62.3269
ltoes 26.155
960
root 0.543595 17.5781 7.62231 14.9628 2.40892 -9.49251
lowerback 5.0197 0.782511 1.32666
upperback 0.821063 1.18214 3.10075
thorax -2.00893 0.58946 2.36733
lowerneck -15.7068 -6.39183 -6.52096
upperneck 13.5175 -9.8238 14.7182
head 7.87106 -3.751 4.78241
rclavicle 1.40143e-014 -2.26615e-014
rhumerus 60.3261 32.2433 -29.9985
rradius 44.3796
rwrist 17.5753
rhand 3.29037 -62.4214
rfingers 7.12502
rthumb 28.738 -629.77
lclavicle 1.40143e-014 -2.26615e-014
lhumerus 60.5078 -34.4423 42.9457
lradius 33.7457
lwrist -6.00998
lhand -19.9166 -11.3809
lfingers 7.12502
lthumb 6.42037 18.5018
rfemur -14.5239 25.9575 16.8918
rtibia 3.47462
rfoot -13.8972 -30.4143
rtoes 4.6946
lfemur -10.1567 -57.217 0.815559
ltibia -4.42438
lfoot -39.0012 62.4531
ltoes 26.2367
961
root 0.545093 17.5783 7.62437 15.0282 2.45975 -9.50576
lowerback 5.03108 0.751318 1.44368
upperback 0.785923 1.14902 3.1239
thorax -2.0486 0.572236 2.32739
lowerneck -15.6296 -6.41246 -6.5466
upperneck 13.408 -9.83796 14.7368
head 7.8255 -3.7651 4.79097
rclavicle -2.98177e-016 -3.18055e-015
rhumerus 60.5797 31.9757 -29.2835
rradius 43.9049
rwrist 18.4649
rhand 2.69375 -60.6627
rfingers 7.12502
rthumb 28.1679 -808.567
lclavicle -2.98177e-016 -3.18055e-015
lhumerus 60.5845 -34.5091 43.0577
lradius 33.9898
lwrist -5.14537
lhand -19.3213 -10.8913
lfingers 7.12502
lthumb 6.99505 18.9731
rfemur -14.5974 25.9636 16.8726
rtibia 3.48751
rfoot -13.9173 -30.4555
rtoes 4.9166
lfemur -10.3378 -57.4159 1.00815
ltibia -4.39727
lfoot -39.4578 62.5153
ltoes 26.452
962
root 0.546942 17.5781 7.62677 15.0844 2.53849 -9.48797
lowerback 4.99766 0.722468 1.56695
upperback 0.815259 1.11538 3.14427
thorax -1.99674 0.554602 2.28195
lowerneck -15.702 -6.47849 -6.63911
upperneck 13.3228 -9.90352 14.7847
head 7.82578 -3.797 4.81126
rclavicle 1.78906e-015 -1.35174e-014
rhumerus 60.7982 31.5756 -28.5925
rradius 43.611
rwrist 19.2819
rhand 2.24046 -58.9831
rfingers 7.12502
rthumb 27.7345 -806.958
lclavicle 1.78906e-015 -1.35174e-014
lhumerus 60.8542 -34.6008 42.9434
lradius 34.2994
lwrist -4.39657
lhand -18.837 -10.0928
lfingers 7.12502
lthumb 7.4625 19.7556
rfemur -14.6384 26.0277 16.8161
rtibia 3.48054
rfoot -14.0051 -30.5852
rtoes 5.29736
lfemur -10.5094 -57.6649 1.16677
ltibia -4.38527
lfoot -39.7468 62.6528
ltoes 26.5086
963
root 0.548454 17.5784 7.62939 15.1443 2.64447 -9.44595
lowerback 4.99403 0.717297 1.76207
upperback 0.83669 1.11756 3.12908
thorax -1.96867 0.554293 2.15663
lowerneck -15.7939 -6.59248 -6.81069
upperneck 13.249 -10.0289 14.8906
head 7.84812 -3.85498 4.85597
rclavicle 2.127e-014 1.39149e-014
rhumerus 60.802 31.1552 -28.0807
rradius 43.3481
rwrist 19.9871
rhand 1.62116 -57.2441
rfingers 7.12502
rthumb 27.1422 -805.312
lclavicle 2.127e-014 1.39149e-014
lhumerus 61.3 -34.8055 42.675
lradius 34.518
lwrist -3.81345
lhand -18.665 -9.12945
lfingers 7.12502
lthumb 7.62848 20.713
rfemur -14.6768 26.0374 16.7371
rtibia 3.4661
rfoot -14.118 -30.6861
rtoes 5.54458
lfemur -10.7136 -58.0175 1.34453
ltibia -4.37794
lfoot -40.0748 62.871
ltoes 26.4627
